# xmcd CD database file
#
# Track frame offsets:
#	150
#	11697
#	24365
#	37472
#	52637
#	62480
#	81345
#	94952
#	108710
#	129805
#	139520
#	158010
#	171620
#	184640
#	197427
#	208142
#	219632
#	233205
#	249045
#	264897
#
# Disc length: 3755 seconds
#
# Revision: 1
# Processed by: cddbd v1.4PL0 Copyright (c) Steve Scherf et al.
# Submitted via: CDex 1.50Beta7
#
DISCID=0d0ea914
DTITLE=Waylon Jennings - I'm A Ramblin' Man
DYEAR=1994
DGENRE=Country
TTITLE0=Ladies Love Outlaws
TTITLE1=I'm a Ramblin' Man
TTITLE2=Are You Sure Hank Done It This Way
TTITLE3=Luckenbach, Texas
TTITLE4=The Wurlitzer Prize
TTITLE5=I've Always Been Crazy
TTITLE6=Amanda
TTITLE7=Come With Me
TTITLE8=I Ain't Living long Like This
TTITLE9=Theme: Dukes Of Hazard
TTITLE10=Lucille
TTITLE11=A Good Hearted Woman
TTITLE12=Shine
TTITLE13=Just To Satisfy You
TTITLE14=Only Daddy That'll Walk The Line
TTITLE15=Rainy Day Woman
TTITLE16=Drinkin' and Dreaming
TTITLE17=Bob Wills Is Still The King
TTITLE18=Honky Tonk Heroes
TTITLE19=Can't You See
EXTD=YEAR: 1994
EXTT0=
EXTT1=
EXTT2=
EXTT3=
EXTT4=
EXTT5=
EXTT6=
EXTT7=
EXTT8=
EXTT9=
EXTT10=
EXTT11=
EXTT12=
EXTT13=
EXTT14=
EXTT15=
EXTT16=
EXTT17=
EXTT18=
EXTT19=
PLAYORDER=
